<?xml version="1.0" encoding="UTF-8"?>
<svg xmlns="http://www.w3.org/2000/svg" version="1.1" xmlns:xlink="http://www.w3.org/1999/xlink" viewBox="0 0 1174.3 1268.5">
  <!-- Generator: Adobe Illustrator 29.5.0, SVG Export Plug-In . SVG Version: 2.1.0 Build 137)  -->
  <defs>
    <style>
      .st0, .st1 {
        fill: #fff;
      }

      .st1, .st2 {
        display: none;
      }

      .st3 {
        fill: #010000;
        font-family: BrushScriptMT, 'Brush Script MT';
        font-size: 53.9px;
      }

      .st4 {
        opacity: .6;
      }

      .st4, .st5 {
        fill: #e10919;
      }

      .st6 {
        fill: #201d19;
      }

      .st7 {
        fill: #091e3c;
      }

      .st8 {
        fill: #f9b613;
      }
    </style>
    <path id="path" d="M654.3,884.5c38.4,1.6,69.2-3.4,90.3-8.4,38.8-9.2,69.8-24.1,93.9-35.7,12.6-6.1,27.9-14,73.8-36.5,14.1-6.9,27.3-13.3,45.2-18,7.6-2,27.4-6.7,27.6-6.7h0"/>
  </defs>
  <g id="Capa_1">
    <g>
      <path class="st8" d="M592.6,1262.4c92.9-37.5,408.2-100.4,408.2-309.2V214.9H184.4v738.3c0,208.8,315.3,271.7,408.2,309.2h0Z"/>
      <path class="st0" d="M190,220.6v732.6c0,20.6,3.2,40.6,9.5,59.4,5.9,17.6,14.8,34.7,26.3,50.9,20.5,28.8,50.5,55.7,89,80,71,44.8,157.5,72.8,220.7,93.3,22.6,7.3,42.3,13.7,57.1,19.5,14.7-5.8,34.4-12.2,57-19.5,63.2-20.5,149.7-48.5,220.7-93.3,38.5-24.3,68.4-51.2,89-80,11.5-16.1,20.3-33.2,26.3-50.9,6.3-18.8,9.5-38.8,9.5-59.4V220.6H190ZM592.6,1268.5l-2.1-.9c-14.5-5.9-34.9-12.5-58.4-20.1-63.8-20.7-151.1-49-223.3-94.5-39.7-25.1-70.7-53-92.1-83-25.2-35.3-37.9-74.6-37.9-116.8V209.2h827.7v743.9c0,42.2-12.8,81.5-37.9,116.8-21.4,30-52.4,57.9-92.1,83-72.2,45.5-159.5,73.8-223.3,94.5-23.5,7.6-43.9,14.2-58.4,20.1l-2.1.9h0Z"/>
      <path class="st0" d="M592.6,1160.6c75.3-30.4,318.8-77.3,318.8-246.6v-390.8H273.8v390.8c0,169.2,243.5,216.2,318.8,246.6h0Z"/>
      <path class="st6" d="M279.4,528.9v385.2c0,32.1,9.2,61.8,27.5,88.3,15.8,23,38.8,44.3,68.5,63.4,54.9,35.4,122.6,57.3,172,73.3,17.8,5.8,33.3,10.8,45.2,15.4,11.9-4.7,27.4-9.7,45.2-15.4,49.4-16,117-37.9,171.9-73.3,29.7-19.1,52.7-40.5,68.5-63.4,18.2-26.5,27.5-56.2,27.5-88.3v-385.2H279.4ZM592.6,1166.7l-2.1-.9c-11.8-4.7-27.9-10-46.5-16-50-16.2-118.4-38.4-174.6-74.5-31-19.9-55.1-42.3-71.7-66.5-19.6-28.4-29.5-60.3-29.5-94.7v-396.5h648.9v396.5c0,34.4-9.9,66.3-29.5,94.7-16.6,24.2-40.8,46.6-71.7,66.5-56.1,36.2-124.6,58.3-174.6,74.5-18.7,6-34.8,11.3-46.5,16l-2.1.9h0Z"/>
      <path class="st4" d="M660.6,1080.6c18.6,2.4,37.4,4.8,56.3,7.4,2.7.4,3.7-3,2.4-7.4-9.5-31.4-17.7-59.1-24.5-84.1-1-3.5-3.7-6.5-6.1-6.8-17.5-1.9-34.7-3.7-51.7-5.4-2.4-.2-3.7,2.3-2.9,5.7,5.6,24.3,12.2,51.4,19.9,82.1,1.1,4.3,4.1,8.2,6.7,8.5h0ZM761.7,977.5c-6.8-24.1-11.9-46-15.2-66.6-.5-2.9-2.9-5.3-5.4-5.5-17.9-1.1-35.3-2.1-52.3-3.1-2.4-.1-4,2-3.5,4.7,3.1,19.7,7.7,40.7,13.7,64,.8,3.3,3.5,6.2,6,6.4,17.6,1.8,35.4,3.7,53.7,5.7,2.6.3,3.8-2.3,2.9-5.7h0ZM583.8,1071.1c18.4,2.2,36.9,4.4,55.4,6.8,2.6.3,3.9-3,2.8-7.3-7.3-30.6-13.6-57.6-19-81.7-.8-3.4-3.3-6.3-5.6-6.5-16.9-1.6-33.6-3.2-50.2-4.7-2.3-.2-3.8,2.2-3.2,5.5,4,23.5,8.5,49.7,13.7,79.7.7,4.2,3.4,7.9,6,8.2h0ZM502.1,1054.4c.4,4.1,2.8,7.7,5.3,8,18.4,2,36.7,4.1,55.1,6.2,2.6.3,4.1-2.9,3.4-7.1-4.8-29.8-9.1-55.9-12.8-79.3-.5-3.3-2.8-6-5.1-6.2-16.6-1.4-33.1-2.8-49.7-4.1-2.3-.2-4,2.2-3.6,5.4,2.2,22.7,4.7,48.1,7.3,77.2h0ZM882,527.8c-3.5.5-8.3,4.9-10.8,9.6-17.6,34.1-33.2,64.4-46.8,91.9-1.9,3.9-.9,6.6,2.2,6.2,22.2-2.8,44.9-5.7,68.1-8.7,3.2-.4,7.6-3.9,9.8-7.9,2.2-4,4.5-8,6.7-12.1v-83.3c-9.8,1.4-19.6,2.8-29.3,4.2h0ZM903.1,647.4c-14.3,26.7-26.4,51.1-36.3,73.9-1.4,3.2,0,5.6,3.1,5.3,13.5-1.1,27.3-2.3,41.4-3.5v-83c-3,1-6.5,4-8.2,7.2h0ZM780.1,985.5c18.6,2,37.8,4.1,57.4,6.3,2.8.3,4.1-2.3,3.1-5.9-7.3-25.2-12.7-48.2-16-70-.5-3.1-3-5.7-5.8-5.8-19.6-1.2-38.5-2.4-56.8-3.5-2.6-.2-4.3,2.1-3.8,5,3.4,20.8,8.5,42.8,15.4,67.1,1,3.4,3.9,6.4,6.5,6.7h0ZM430.8,1054.5c18.6,1.8,37,3.7,55.4,5.6,2.6.3,4.4-2.9,4.1-6.9-2.3-28.9-4.4-54.2-6.3-76.8-.3-3.2-2.4-5.8-4.7-6-16.6-1.2-33.3-2.4-50.2-3.5-2.4-.1-4.2,2.2-4.1,5.2.6,21.9.9,46.5,1.1,74.6,0,3.9,2.2,7.4,4.8,7.7h0ZM478.7,750.3c0,2.4,2,4.3,4.4,4.2,17.2-.9,34.4-1.8,51.6-2.8,2.4-.1,4.5-2.3,4.8-4.8,1.7-18.2,4.1-38,7.1-60.3.4-3.1-1.4-5.5-4.2-5.3-19.5,1.8-38.9,3.5-58.3,5.1-2.7.2-5,2.9-5,5.9-.4,21.5-.5,40.6-.3,58.1h0ZM497.1,959c16.4,1.2,32.7,2.4,49,3.7,2.3.2,3.8-2.2,3.3-5.2-3.3-21.5-6-40.6-8.1-58.3-.3-2.5-2.3-4.5-4.5-4.6-15.5-.7-31-1.3-46.5-1.9-2.2,0-3.8,1.8-3.5,4.2,1.6,17.1,3.5,35.6,5.5,56.5.3,2.9,2.4,5.5,4.7,5.6h0ZM558.9,685.4c-3.5,22.5-6.3,42.4-8.3,60.7-.3,2.6,1.5,4.5,3.9,4.4,17.3-1.1,34.6-2.2,52.2-3.4,2.5-.2,4.9-2.4,5.4-5.1,3.9-19.1,8.9-39.9,15-63.2.9-3.3-.7-5.7-3.4-5.5-19.8,2-39.4,4-58.9,5.8-2.7.3-5.4,3.1-5.9,6.2h0ZM558,571.1c-23.3,2.8-46.6,5.5-69.8,8.2-3.3.4-6,4.2-6.2,8.4-1.1,30.1-1.9,56.4-2.4,79.8,0,3.3,2.1,5.7,4.9,5.5,19.9-1.7,39.8-3.6,59.7-5.5,2.8-.3,5.4-3.2,5.9-6.6,3.5-24.3,7.7-51.5,12.5-82.6.7-4.3-1.4-7.6-4.7-7.3h0ZM685,527.5c-1.5,4.9,0,8.5,3.4,8,24.2-3.2,48.5-6.5,73-9.9,1.4-.2,3-1.1,4.5-2.3h-79.6c-.4,1.4-.9,2.8-1.3,4.2h0ZM485.2,878.7c.2,2.3,2.1,4.2,4.3,4.3,15.5.5,30.9,1,46.3,1.6,2.2,0,3.7-1.8,3.5-4.1-1.7-16.8-2.7-32.5-3.2-48.2,0-2.2-1.9-4-4.1-3.9-15.6,0-31.2.2-46.8.2-2.2,0-3.9,1.7-3.7,3.8,1,15,2.2,30.2,3.6,46.4h0ZM531.9,819c2.2,0,4-1.8,4-4,0-15.7.6-31.6,1.9-48.8.2-2.4-1.6-4.3-4-4.2-16.9.9-33.8,1.7-50.7,2.5-2.4.1-4.3,2.1-4.2,4.4.3,16.5.9,31.8,1.7,46.9.1,2.1,2,3.8,4.2,3.8,15.7-.2,31.4-.4,47.1-.6h0ZM483.2,553.1c-.2,4.6,2.4,8,5.8,7.6,24-2.8,47.9-5.7,71.8-8.7,3.3-.4,6.7-4.5,7.4-9.3,1-6.3,2-12.8,3.1-19.4h-86.9c-.4,10.3-.8,20.3-1.2,29.9h0ZM495.9,1127.9c-1-14.5-2-28.3-3-41.4-.3-4.4-2.7-8.2-5.4-8.5-18.8-2.1-37.6-4.1-56.6-6.1-2.6-.3-4.8,2.9-4.8,7.2,0,6.7,0,13.7,0,20.8,23.4,10.9,47.2,20.1,69.7,28h0ZM658.2,1138.4c-2.7-11.3-5.3-22.2-7.8-32.7-1.1-4.7-4.2-8.7-6.8-9-18.9-2.4-37.7-4.8-56.5-7.1-2.6-.3-4.1,3.1-3.3,7.7,3.3,19.4,6.9,40.2,10.7,62.7,15.7-6.2,38.1-13.1,63.8-21.5h0ZM571.5,1095.7c-.7-4.6-3.5-8.5-6.1-8.8-18.8-2.3-37.5-4.5-56.3-6.6-2.6-.3-4.4,3-4.1,7.5,1.2,14.1,2.5,28.9,3.9,44.6,28,9.5,53.3,17.2,72.1,23.9-3.4-21.7-6.5-41.8-9.5-60.6h0ZM722.8,1107.2c-19.3-2.6-38.4-5.2-57.3-7.7-2.7-.3-3.9,3.1-2.7,7.8,2.2,8.8,4.5,17.9,6.8,27.3,18.7-6.3,38.9-13.4,59.3-21.7-1.7-3.1-4-5.5-6-5.7h0ZM865.2,1009.8c-2.8-.3-4.1,2.4-2.9,6.2,1.2,3.6,2.4,7.2,3.6,10.8,4.5-4.9,8.8-10.1,12.8-15.4-4.5-.5-9-1.1-13.5-1.6h0ZM849.4,1014.5c-1.2-3.8-4.4-7-7.2-7.4-19.7-2.3-38.9-4.6-57.7-6.8-2.6-.3-3.9,2.4-2.7,6,6.6,21.2,14.4,44,23.3,69,18.8-11.5,36.4-24.4,51.6-39.2-2.6-7.4-5-14.7-7.3-21.7h0ZM769.8,1004.9c-1.1-3.6-4.1-6.8-6.7-7.1-18.4-2.1-36.5-4.1-54.2-6.1-2.5-.3-3.7,2.3-2.7,5.8,7,25.2,15.5,53,25.3,84.5,1.4,4.4,4.7,8.4,7.4,8.7,10,1.4,20.1,2.7,30.2,4.1,8.8-4.3,17.6-8.9,26.1-13.8-9.8-27.9-18.3-53.1-25.4-76.2h0ZM336.5,1039c2.3-26.9,4.1-50.5,5.2-71.5.2-3-1.7-5.4-4.2-5.5-17.7-.8-35.8-1.6-54.3-2.3-1,0-2,.3-2.8.8,9.8,32.6,29.6,59.6,54.9,82.2.6-1,1-2.3,1.1-3.7h0ZM382.2,564.8c.5,4.4,3.6,7.6,7,7.3,24.1-2.6,48.1-5.4,72.1-8.1,3.3-.4,6.1-4.3,6.2-8.9.2-10.2.3-20.8.5-31.8h-90.3c1.5,14.6,3,28.4,4.5,41.5h0ZM413.8,1077.8c0-4.3-2.1-7.9-4.7-8.2-14.8-1.5-29.8-3-44.8-4.4,15.5,10.6,32.2,20.1,49.3,28.6,0-5.5.1-10.8.2-16h0ZM655,559c-23.5,3-46.8,6-70.2,8.9-3.3.4-6.6,4.4-7.3,8.7-5.5,31.2-10.3,58.6-14.4,83.1-.6,3.4,1.3,5.9,4.1,5.6,20-2,40-4.1,60.3-6.2,2.8-.3,5.9-3.4,6.9-6.9,6.9-25.3,15-53.5,24.3-85.7,1.3-4.5-.3-7.9-3.6-7.5h0ZM273.8,551.3c2.2,8.4,4.3,16.5,6.4,24.4,1.1,4.2,4.8,7.3,8.2,6.9,24.5-2.5,48.8-5,73-7.6,3.4-.4,5.7-4.1,5.1-8.5-1.8-13.7-3.7-28.1-5.7-43.3h-87v28.1h0ZM295.3,681.2c-6.5-20.9-13.7-44.3-21.5-70.9v77.5c6-.3,11.9-.7,17.9-1,3-.2,4.6-2.7,3.7-5.7h0ZM583.9,540.7c-.8,4.8,1.2,8.2,4.6,7.8,24-3,48-6.1,72.1-9.3,3.4-.4,7.2-4.7,8.7-9.6.6-2.1,1.2-4.2,1.8-6.3h-84c-1.1,5.9-2.1,11.8-3.1,17.5h0ZM314.9,760.9c2.6,0,4.2-1.9,3.6-4.2-4.7-16.1-10.1-33.5-16.2-53.1-.8-2.7-3.9-4.9-6.8-4.8-7.2.4-14.4.7-21.7,1.1v61.9c14-.3,27.7-.6,41.2-1h0ZM817.7,826.2c-20,.2-39.3.3-58,.5-2.6,0-5,2.2-5.2,4.8-1.6,18.9-1.4,37.9.7,57.8.3,2.8,2.6,5.2,5.2,5.3,18.3.9,37.2,1.9,56.8,2.9,2.7.1,4.7-2.2,4.5-5.1-1.9-21-1.7-41.1.5-61.2.3-2.8-1.7-5.1-4.5-5.1h0ZM424.2,949.1c0,2.8,2.1,5.3,4.4,5.4,16.7,1,33.2,2,49.6,3.1,2.3.2,4-2.1,3.7-5-1.8-20.7-3.5-39.1-5.1-56.1-.2-2.4-2.2-4.3-4.3-4.4-15.6-.5-31.3-1-47.2-1.5-2.2,0-3.9,1.7-3.8,4,1.1,16.5,2,34.3,2.7,54.5h0ZM284.2,948c18.3.6,36.2,1.3,53.8,2,2.5.1,4.5-2.1,4.6-4.8.7-19.4.7-36.6.1-52.5,0-2.2-2.1-4.1-4.5-4.1-17-.3-34.4-.6-52.4-.8-2.5,0-4.5,1.7-4.5,3.9.4,15.6-.2,32.4-1.6,51.3-.2,2.6,1.7,4.9,4.3,5h0ZM350.1,820.7c17,0,33.6-.2,50-.3,2.3,0,3.9-1.7,3.7-3.7-1.9-14.4-4.1-29-6.5-44.8-.3-2.2-2.6-4-5.1-3.9-17.5.6-35.3,1.1-53.4,1.6-2.5,0-4.2,1.9-3.6,4,3.9,15.3,7.2,29.5,9.9,43.5.4,2,2.6,3.5,5,3.5h0ZM358.2,950.9c17.3.8,34.4,1.6,51.2,2.6,2.4.1,4.2-2.1,4.1-4.9-.5-20-1.2-37.8-2.2-54.2-.1-2.3-2.1-4.2-4.3-4.2-16.1-.4-32.4-.8-49.1-1.1-2.3,0-4.2,1.7-4.1,3.9.6,16,.7,33.3.2,52.8,0,2.7,1.8,5.1,4.3,5.2h0ZM353,1047.3c19,1.6,37.7,3.3,56.4,5.1,2.6.2,4.8-2.8,4.8-6.7.2-27.9,0-52.4-.2-74.2,0-3.1-2-5.6-4.4-5.7-17-1-34.2-2-51.7-2.9-2.4-.1-4.5,2.1-4.7,5.1-.9,21.2-2.4,44.9-4.4,72-.3,3.8,1.6,7.1,4.3,7.4h0ZM420.3,877.1c.2,2.2,2.1,4,4.3,4.1,15.8.4,31.5.8,47,1.2,2.2,0,3.8-1.7,3.6-4-1.4-16.1-2.6-31.1-3.7-46.1-.1-2.1-2.1-3.8-4.2-3.8-15.7,0-31.5.1-47.5.2-2.2,0-3.9,1.7-3.7,3.7,1.6,14.4,3,29,4.2,44.6h0ZM853.6,531.9c-24.5,3.5-48.8,6.9-72.8,10.2-3.4.5-7.7,4.7-9.7,9.4-14,33.2-26.3,62.6-37,89.1-1.5,3.7-.3,6.4,2.7,6,21.1-2.5,42.6-5.1,64.4-7.8,3.1-.4,7-3.7,8.9-7.6,13.2-27.4,28.3-57.6,45.4-91.5,2.4-4.8,1.6-8.3-1.8-7.8h0ZM352.8,875.8c.2,2.1,2.2,3.9,4.5,3.9,16.7.3,33,.6,49,.9,2.2,0,3.9-1.7,3.8-3.9-1.2-15.5-2.6-30-4.3-44.4-.2-2-2.3-3.6-4.6-3.6-16.2,0-32.7.1-49.7.1-2.4,0-4,1.6-3.7,3.6,2.3,14,3.9,28.2,5,43.3h0ZM330.6,756.4c.6,2.3,3.2,4,5.8,3.9,18.4-.5,36.5-1.1,54.2-1.8,2.5,0,4.2-2,3.8-4.4-2.6-16.7-5.6-34.8-8.8-55.3-.4-2.9-3.1-5.1-5.9-4.9-19.9,1.3-40.1,2.5-60.6,3.6-2.9.2-4.5,2.6-3.8,5.3,5.7,19.8,10.7,37.3,15.1,53.4h0ZM330.3,820.8c2.4,0,4.1-1.6,3.7-3.6-2.8-14-6.4-28.1-10.6-43.3-.6-2.1-3.2-3.8-5.8-3.8-14.3.3-28.9.6-43.9.9v49.3c.9.4,1.9.7,2.9.7,18.4,0,36.2-.1,53.5-.2h0ZM911,925.4c-.2-1.3-.4-2.5-.5-3.8-.4-3.2-3.2-6-6.2-6.2-21.7-1.4-42.5-2.7-62.6-3.9-2.8-.2-4.8,2.2-4.3,5.2,3.3,22,8.7,45.2,16,70.5,1,3.5,4.2,6.7,7,7,9.1,1,18.3,2.1,27.7,3.1,12.8-21,21.1-44.9,22.9-72.1h0ZM461.6,688.1c-19.5,1.5-39.1,3-58.9,4.3-2.8.2-4.7,2.7-4.3,5.6,2.7,20.6,5.3,38.9,7.6,55.6.3,2.3,2.6,4.1,5.1,4,17.6-.7,35-1.5,52.2-2.3,2.4-.1,4.3-2.2,4.3-4.6-.5-17.4-.8-36.3-.9-57.7,0-3-2.2-5.3-5-5.1h0ZM278.6,829.1c-2.6,0-4.3,1.6-3.9,3.5,2.9,13.7,4.9,27.6,6,42.4.2,2.1,2.3,3.8,4.8,3.8,17.9.2,35.3.4,52.3.7,2.4,0,4.2-1.7,4-3.8-1.1-15.1-2.8-29.2-5.1-43.1-.3-2-2.6-3.5-5-3.5-17.2,0-34.9,0-53.2,0h0ZM377.7,681.4c2.8-.2,4.8-2.8,4.3-6-3.4-22.3-7.1-47.3-11.1-76-.6-4-3.7-7.1-7-6.7-23.6,2.4-47.3,4.7-71.2,7-3.4.3-5.2,3.8-4.2,7.6,7.5,27.5,14.3,51.5,20.4,73,.9,3,3.9,5.3,6.9,5.1,20.9-1.3,41.5-2.6,61.9-4h0ZM461.2,582.4c-23.3,2.6-46.7,5.1-70.2,7.6-3.3.3-5.6,4-5.1,8,3.3,28.8,6.4,54,9.3,76.5.4,3.1,3,5.5,5.9,5.3,20.2-1.5,40.3-3.1,60.3-4.7,2.8-.2,5.1-3,5.1-6.3,0-23.3.2-49.4.6-79.3,0-4.2-2.5-7.4-5.8-7h0ZM418.8,820.2c16.1-.1,32.1-.3,47.9-.4,2.2,0,3.9-1.7,3.8-3.8-1-15-1.7-30.2-2.3-46.6,0-2.3-2.1-4.1-4.5-4-17,.7-34.1,1.4-51.4,2-2.4,0-4.2,2-3.8,4.2,2.2,15.8,4.1,30.5,5.9,45,.2,2,2.3,3.7,4.5,3.6h0ZM739.5,893.6c2.5.1,4.3-2,4-4.8-2.1-19.7-2.4-38.5-.8-57.2.2-2.6-1.7-4.7-4.2-4.7-18.2.1-35.9.3-53.1.4-2.4,0-4.5,2-4.6,4.5-.9,17.7-.3,35.5,1.7,54.2.3,2.6,2.5,4.9,4.8,5,17,.8,34.3,1.7,52.2,2.6h0ZM650.8,656.5c20.4-2.2,40.9-4.6,61.8-7,2.9-.3,6.4-3.6,7.9-7.2,10.2-26.3,22-55.6,35.4-88.7,1.9-4.6.7-8.1-2.6-7.7-23.9,3.3-47.6,6.4-71.2,9.5-3.3.4-7.1,4.5-8.5,9.1-9.9,32.3-18.6,60.7-26.1,86.1-1,3.6.4,6.1,3.3,5.8h0ZM614.4,883.1c.3,2.5,2.3,4.6,4.6,4.7,16,.7,32.3,1.4,48.9,2.2,2.3.1,4-1.9,3.7-4.5-2-18.6-2.7-36.2-1.8-53.7.1-2.5-1.7-4.4-4.1-4.4-16.9.1-33.4.2-49.6.3-2.3,0-4.2,1.9-4.2,4.3-.3,16.6.6,33.4,2.5,51.2h0ZM825.5,809.2c3.8-20.2,9.6-40.7,17.7-62.3,1.1-3-.3-5.3-3.3-5.1-21.1,1.6-41.6,3.1-61.4,4.5-2.8.2-5.8,2.7-6.8,5.6-6.8,20.5-11.6,39.8-14.6,58.9-.4,2.7,1.4,4.8,4,4.7,18.8-.3,38.2-.7,58.4-1.1,2.8,0,5.5-2.4,6-5.2h0ZM886.1,643.1c-22.9,2.8-45.2,5.6-67.1,8.2-3.1.4-7,3.6-8.7,7.2-12.1,25.6-22.2,48.7-30.4,70.2-1.1,3,.2,5.2,3,5,20.1-1.6,40.7-3.3,62.1-5.1,3-.2,6.5-3,7.8-6.2,9.6-22.6,21.4-46.8,35.4-73.3,2-3.7,1-6.5-2.2-6.1h0ZM759.1,752.7c.9-2.8-.5-5-3.2-4.8-19.4,1.4-38.3,2.7-56.7,4-2.6.2-5.3,2.5-6,5.3-5.1,19.3-8.7,37.4-10.8,55.2-.3,2.5,1.5,4.5,3.9,4.4,17.3-.3,35.1-.6,53.4-.9,2.6,0,4.9-2.2,5.3-4.9,2.8-18.8,7.5-37.9,14-58.2h0ZM619.4,761.7c-3.4,18.2-5.6,35.2-6.7,52-.2,2.3,1.6,4.2,3.9,4.2,16.3-.2,32.9-.5,49.9-.8,2.4,0,4.5-2.1,4.8-4.5,1.9-17.6,5.3-35.5,10.1-54.6.7-2.7-.8-4.7-3.3-4.6-18.1,1.2-35.9,2.4-53.4,3.5-2.5.2-4.8,2.4-5.3,4.9h0ZM633.8,970.5c16.8,1.6,33.8,3.3,51.1,5,2.4.2,3.7-2.2,2.9-5.5-5.8-23.2-10.3-44.1-13.4-63.6-.4-2.7-2.7-5-5-5.2-16.7-.9-33-1.8-49.1-2.6-2.2-.1-3.8,1.9-3.4,4.5,2.7,18.7,6.5,38.8,11.3,61.2.7,3.1,3.2,5.9,5.5,6.2h0ZM702.6,740.2c18.7-1.4,37.8-2.9,57.5-4.5,2.7-.2,5.9-2.8,7-5.8,7.9-21.4,17.7-44.3,29.4-69.7,1.6-3.6.6-6.2-2.4-5.9-21.5,2.6-42.5,5-63.2,7.4-2.9.3-6.4,3.4-7.7,6.9-9.5,24.5-17.4,46.4-23.7,66.8-.9,2.8.6,5,3.2,4.8h0ZM905.5,825.5c-22.3.2-43.7.4-64.3.5-2.9,0-5.5,2.4-5.9,5.2-2.4,20.3-2.6,40.7-.8,61.9.3,3,2.8,5.5,5.6,5.7,20.1,1.1,41,2.2,62.8,3.3,3,.2,5.3-2.3,5.1-5.4-1.4-22.5-.7-44.1,2.4-65.7.4-3-1.7-5.5-4.9-5.4h0ZM856.9,745.8c-8.2,21.9-14.3,42.6-18.2,63-.5,2.9,1.4,5.1,4.3,5.1,20.7-.4,42.3-.8,64.7-1.2,1.3,0,2.5-.5,3.6-1.2v-75.3c-16,1.2-31.6,2.4-46.8,3.5-3,.2-6.5,2.9-7.6,6h0ZM559.9,958.4c.5,3,2.8,5.7,5.1,5.9,16.4,1.4,32.9,2.8,49.6,4.4,2.3.2,3.7-2.2,3-5.3-4.6-22.3-8.3-42.3-10.9-60.8-.4-2.6-2.5-4.8-4.7-4.9-15.9-.8-31.6-1.5-47.1-2.2-2.2,0-3.7,1.8-3.4,4.3,2.2,17.8,5,37.1,8.5,58.7h0ZM553.7,885.2c15.5.6,31.1,1.2,47,1.9,2.2,0,3.8-1.9,3.5-4.3-1.9-17.6-2.8-34.2-2.6-50.7,0-2.3-1.8-4.2-4-4.2-16,.1-31.8.2-47.5.3-2.2,0-4,1.8-3.9,4,.4,15.8,1.4,31.6,3.1,48.5.2,2.4,2.2,4.4,4.4,4.5h0ZM707.1,664.4c-20.5,2.3-40.6,4.5-60.5,6.6-2.8.3-5.8,3.3-6.8,6.5-6.6,23.5-12,44.3-16.2,63.6-.6,2.7,1,4.7,3.5,4.5,17.8-1.2,35.8-2.5,54.2-3.9,2.6-.2,5.3-2.6,6.2-5.4,6-20.2,13.5-42,22.5-66.3,1.3-3.4,0-6-2.9-5.6h0ZM550.1,818.8c-2.2,0-4-1.7-4-4,.1-15.8,1-31.9,2.5-49.2.2-2.4,2.3-4.5,4.7-4.7,17-.9,34-1.9,51.3-3,2.4-.1,4,1.8,3.6,4.4-3.1,18.1-5.1,34.9-6.1,51.5-.1,2.3-2.1,4.2-4.3,4.3-16.1.2-32,.5-47.8.7h0Z"/>
      <path class="st7" d="M947.2,745c-.8.2-1.5.3-2.3.5.6-1.1,1.3-2.2,1.9-3.3.1.9.2,1.9.4,2.8h0ZM561.9,776.7c1.1,0,2.1,0,3.2-.1-4.7,7.5-9.6,14-14.6,19.4,1.2-5.6,2.8-12.2,4.9-19.8,2.1.4,4.2.5,6.4.5h0ZM613.5,820.9c-1.3,0-2.5-.2-3.8-.3-2.7-.2-5.2-.5-7.5-.7,0,0,0,0,0,0,1.1-1.6,2.2-3.2,3.2-4.9.5.3,1,.7,1.5,1,1.8,1.1,3.7,2.1,5.6,2.9.3.7.6,1.4.9,2.1h0ZM677.7,814.2c1.2-1.7,2.4-3.5,3.7-5.5.2.3.4.7.6,1,0,0,0,0,0,0,1.6,2.6,3.5,5,5.7,7-4.5.7-8.9,1.3-13.2,1.8,1.1-1.4,2.2-2.9,3.3-4.4h0ZM828.9,768c2.3,1.9,4.6,3.7,7.1,5.2.8,1.5,1.8,2.9,2.8,4.3-14.3,4.7-26.8,8.6-37.9,12,4-5.7,8.1-12.3,12.4-20,2.2-3.9,4.3-7.9,6.4-12,2.4,3.8,5.5,7.2,9.3,10.4h0ZM1174,790.5c-.8-4.8-3-9.5-6.4-13.9-3.1-4-7.2-7.7-12.3-10.9-.5-.3-1.1-.7-1.7-1-1-1.9-2.1-3.7-3.5-5.5-3.1-4-7.3-7.7-12.3-10.9-10-6.4-23.5-10.9-39.1-12.9-16.3-2.1-31.9-3.1-47.5-3.1s-23.8.6-35.5,1.9c1.4-15.9,5.1-34.1,11.3-54.4,0,0,0-.1,0-.2,7.8-27.6,18.2-57.3,30.9-88.4,12.8-31.1,24.8-57.6,35.7-78.9,1.3-2.4,3-7.6-1-13.8,0,0,0,0,0,0-1.8-2.7-4.3-5.1-7.9-7.5-2.1-1.4-4.5-2.6-7.1-3.7-.2-1.9-1-4-2.4-6.3,0,0,0,0,0,0-1.7-2.7-4.3-5.1-7.9-7.5-3.2-2.1-7-3.9-11.4-5.2,0,0,0,0-.1,0-4.2-1.2-8.1-1.8-11.7-1.8-6.8,0-12.9,2.2-17.5,6.4-.7.6-1.3,1.4-1.8,2.2-7.9,12.6-19.6,39.1-35.9,80.8-6.4,16.5-12.3,32.5-17.5,47.8-3.1-5.1-7.8-10.1-14-15.3-1.3-1.1-2.7-2.1-4.1-3.1-3.1-4.7-7.5-9.5-13.4-14.4-10.4-8.6-23.5-13.6-38.7-14.7,0,0-.1,0-.2,0-1.8-.1-3.7-.2-5.4-.2-18.8,0-33.1,6.1-42.4,18.2-5.1,6.6-8.4,15-9.7,24.8-.6,4.9-.8,10.2-.5,15.9-.9-.6-1.9-1.2-2.9-1.7-1.4-.7-2.9-1.3-4.3-1.8-1.9-7-6.4-12.4-13.2-15.7-4.7-2.3-9.6-3.5-14.7-3.5s-3.9.2-5.8.5c0,0,0,0,0,0,5.3-11.1,10.7-22.1,16.3-33,1.3-2.4,3.1-7.6-1-13.9-1.7-2.7-4.3-5.1-7.9-7.5-2.1-1.4-4.5-2.6-7.2-3.7-.2-1.9-1-4-2.5-6.3-1.8-2.7-4.3-5.1-7.9-7.5-3.2-2.1-7-3.9-11.4-5.2,0,0,0,0-.1,0-4.2-1.2-8.1-1.8-11.7-1.8-6.8,0-12.9,2.2-17.5,6.4-.9.8-1.7,1.8-2.2,2.9-5.8,11.4-11.6,23.3-17.3,35.9-.8-.9-1.7-1.8-2.6-2.7-2.9-2.6-6.1-4.4-9.6-5.6-1.5-4.5-4.2-8.5-7.9-11.8-5.2-4.6-11.6-7-18.5-7s-3.7.2-5.6.5c-8.5,1.5-15.8,5.8-22,13-6,7.1-9.3,15-9.7,23.6,0,.1,0,.2,0,.4-.1,9.2,3.1,17,9.4,22.8,2.9,2.7,6.2,4.6,9.8,5.8,1.6,4.5,4.1,8.4,7.7,11.6,5.1,4.7,11.5,7.2,18.5,7.2s3.7-.2,5.6-.5c.4,0,.8-.2,1.3-.2-3.9,10.1-7.7,20.6-11.5,31.2-1-.9-2.2-1.7-3.5-2.6-2.1-1.4-4.5-2.6-7.2-3.7-.2-1.9-1-4-2.4-6.2,0,0,0,0,0,0-1.7-2.7-4.3-5.1-7.9-7.5-3.2-2.1-7-3.8-11.4-5.2,0,0,0,0-.1,0-4.2-1.2-8.1-1.8-11.7-1.8-6.8,0-12.9,2.2-17.5,6.4-1,.9-1.9,2.1-2.4,3.3-4.4,9.7-9,21.2-13.6,34.2-1.4-1.3-3-2.6-4.7-3.9,0,0,0,0,0,0-1.4-1.1-2.8-2-4.3-2.9-.2-.4-.4-.8-.6-1.2,0,0,0,0,0,0-2.4-4.3-6.5-8.7-12.5-13.3,0,0,0,0,0,0-6.2-4.7-13.5-7.7-21.8-8.9-.5,0-.9-.2-1.4-.2,12.8-17.2,17.9-30.4,16-41.2,0,0,0,0,0,0-1.4-7.8-8.3-12.2-13.4-14.9-1.3-.7-2.6-1.3-4-1.9,0-.2,0-.4,0-.6-1.5-8.7-10.5-13.4-13.4-15-5.6-3-11.7-5.2-17.9-6.8-3.4-1-7.1-1.5-10.9-1.5s-5.4.2-8.2.7c-9,1.6-18.3,5.1-27.7,10.5-10.2,5.9-16.8,12-20.1,18.7-12.8,24.6-26.4,57.9-40.6,98.9-4.8,2.1-9.7,3.9-14.9,5.6-1.9-6.7-6.2-11.9-12.5-15.1-7.6-4-16.2-6-25.6-6s-8.6.4-13.2,1.2c-8.3,1.4-16.6,5.2-24.7,11.1-2.1,1.6-4.3,3.3-6.4,5.2,5.6-14.2,9.9-27.2,12.8-38.8,2.8-5.6,2.4-12.1-1.2-18-2.8-4.6-7.5-9.1-14.5-13.7-.6-.4-1.1-.7-1.7-1.1-.4-.9-.8-1.8-1.4-2.7-2.8-4.6-7.5-9.1-14.5-13.7-9.5-6.3-17.5-9.3-24.5-9.3s-8.2,1.1-11.6,3.4c-2.3,1.5-3.9,3.9-4.4,6.6-6.2,31.6-20.4,73.3-42.3,124.3,1.1-25.1.8-44.2-1-57.5,0,0,0-.1,0-.2-1.4-9.1-5.6-17.1-12.4-23.9-2.8-2.8-6.2-5.4-10-7.8-2-3.5-4.5-6.7-7.5-9.7-6.3-6.2-14.9-11.4-25.7-15.3-12.9-4.7-27-7.1-42-7.1s-17.9.8-27.4,2.5c-10.9,1.9-22.6,5.3-34.8,10.1-12.2,4.8-24.3,11.2-35.9,18.9-12.5,8.3-22.2,18.7-28.8,31.2-7,13.1-8.8,27.2-5.4,41.8,2.8,12.5,10.4,22.8,22.6,30.6,4.8,8.2,12.3,15,22.4,20.3,11.2,6.2,21.8,9.3,31.4,9.3s4.1-.1,6.1-.4c8.7-1.1,12-5.5,13.3-9,1-2.8,1.9-8.5-4-14.9,0,0-.1-.1-.2-.2-6.6-6.7-9.8-13.7-9.8-21.6,0-8.9,2.1-17.2,6.4-25.3,4.3-8.1,11-15.4,20-21.7,9-6.4,19-10.6,29.7-12.4,3.3-.5,6.3-.8,9-.8,2.3,17.8,2.3,40.5,0,67.8-2.6,31.5-6.1,63.4-10.5,94.8-4.4,31.7-6.7,52.7-7,64.3-.2,1.6-.2,3.3.1,5.1,1,6,5,14,17.8,19.1,1.5,6.1,6.4,13.8,20,18.4,6.5,2.2,13.6,3.3,21.4,3.3s7.6-.3,11.6-.8c.2,0,.3,0,.5,0l1.1-.2c3.8-.7,6.9-3.4,8-7,2.8-8.8,10.7-24.9,23.5-47.7,13-23.2,26.8-47.2,41.1-71.4.9-1.5,1.8-3.1,2.7-4.6-2.1,13.6-2.4,26.4-.9,38.3,0,.4.1.8.2,1.1,2.1,8.8,7.1,16.5,14.7,23.1,2.3,1.9,4.7,3.7,7.1,5.3,2.6,4.4,6,8.5,10.4,12.2,6.9,5.9,14.8,10.1,23.5,12.5,2.7,1.2,5.9,1.9,9.6,2.1.1,0,.2,0,.4,0,.4,0,.9,0,1.3,0,7.3,0,14.8-2.4,22.1-7,6.6-4.2,13.3-10.4,20.1-18.4,6.5-7.7,12.5-16.3,18-25.6,2.5,4.3,5.7,7.8,9.8,10.4,1.8,1.1,3.7,2.1,5.6,2.9,2.5,6.4,6.5,11.3,11.8,14.6,5.5,3.4,11.4,5.2,17.8,5.2s4.1-.2,6.2-.5c10.7-1.9,21.4-11.3,33.1-29.8,1.7,1.5,3.4,2.9,5.3,4.2,1,.7,1.9,1.3,2.9,1.9,3.6,6.1,8.5,11.4,14.6,15.6,7.6,5.2,15.9,7.9,24.8,7.9s8.2-.6,12.4-1.7c6.4-1.6,13.1-5.6,20.5-12.2,4.2,8,10,16.5,17.3,25.3,0,0,0,.1.1.2.7.8,1.3,1.5,1.9,2.2,8.3,9.6,14.6,17,21.1,21.6,8.2,9.4,14.6,16.3,21.6,20.1.3.1.5.3.8.4,9.7,4.1,23.9,6.8,36.3,6.8s2.4,0,3.6,0c33.4-1.4,89.3-13,124.5-25.7,46.1-16.7,75.1-34.8,111.8-57.7l.5-.3c34.1-21.3,56-32.1,80.5-39.6,11.4,11.9,26.2,21.1,43.8,27.5,13.2,4.8,27.4,7.2,42.2,7.2s17.3-.8,26.2-2.3c19-3.3,35.8-9.9,49.9-19.7,7.5-5.2,12.9-10.2,16.6-15.2,4.6-6.4,6.3-12.8,5.2-19.3h0Z"/>
      <path class="st0" d="M1098.8,779.2c-1-5.6-10.2-9.1-27.7-10.3-17.5-1.3-31.4.2-55.7,4.4l-14.9,3.7c7.2,10.8,15.9,16.3,29,20.6,13.2,4.3,27.4,5.2,42.7,2.5,10.6-1.8,17.9-4.7,21.8-8.7,4-3.9,5.6-8,4.8-12.3h0ZM918.5,597.8c-2-11.5-6.6-16.4-13.7-14.7-6.7,1.6-12.4,7.6-17.1,17.9-1.5,3.5-2.6,7.2-3.3,11,4.5-.8,9.1-.5,13.7.8,4.6,1.3,6.9,3.7,6.8,7.2-4.6,5.7-9.9,14.4-16,26.1,3.5,8.2,8.7,14.7,15.6,19.6,3.5,2.9,5.8,2.5,6.8-1.2,7.8-27.6,10.2-49.8,7.3-66.7h0ZM900,688c-8-3-15.7-8.4-23.3-16.1-15,35.5-21.4,59.3-19.3,71.2,1,5.9,3.3,8.5,6.9,7.9,4.3-.7,10-6.7,17.1-17.8,7.1-11.1,13.9-24.5,20.2-40.2.9-2.7.4-4.4-1.5-5h0ZM1128.9,799.1c-12.9,9-28.2,15-45.8,18-23,4-44.1,2.5-63.2-4.4-18.3-6.6-33-16.3-44-29.5,0,0,0,0,0,0-28.2,7.8-51.5,19-89.2,42.5-37.2,23.3-65.1,40.7-110.4,57.1-34.7,12.6-89.3,23.7-121.5,25.1-12.3.5-26.6-2.1-35.4-5.9-6.8-3.6-14.2-12.5-24.2-24.1-16.4-19.8-22.7-35.4-23.3-45.8-.5-7,4.3-8.6,14.6-4.7,5.5,1.6,13,2.7,22.4,3.5,73,5.6,156.7-17.7,258.1-51.8,46.8-15.7,74.2-22.9,92.4-25.9-.7-2.2-1.2-4.3-1.5-6.3-3.9-22.8-2.3-48.7,5-77.8.6-2.3,1.2-4.6,1.8-7-8.3,10.8-16.9,18.6-25.7,23.6-2.4.9-4.1,3-5.2,6.5-9.5,22.8-21,41.9-34.4,57.5-13.4,15.6-25.6,23.1-36.6,22.7-2.8-.2-5.1-.7-6.9-1.6-7.5-1.9-14.3-5.5-20.3-10.6-6-5.1-9.8-11-11.4-17.7-2.6-15.1-1.4-32.1,3.7-50.9,5.1-18.9,12.5-35.6,22.3-50.3l5.6-7.9-.8-4.4c-3.8-21.8-1.6-38,6.4-48.4,8.1-10.4,21.1-15.1,39.1-14.1,13.2,1,24.1,5.1,32.9,12.4,8.8,7.3,13.7,14.1,14.8,20.4,3.2,18.2,1.5,40-5.1,65.3-.9,2.7-.1,3.3,2.4,1.7,11-7.7,20-18.6,27-32.5,6.9-22.9,15.6-47.6,25.9-74.1,15.9-40.8,27.6-67.2,35-79.1,4.4-4,10.9-4.8,19.4-2.3,3.4,1,6.3,2.3,8.7,3.9,2.4,1.6,4,3.1,5,4.5.9,1.5,1.1,2.6.6,3.4-11.1,21.6-23.1,48.2-36.1,79.8-13,31.6-23.4,61.4-31.3,89.4-10.9,36.3-14.6,66-11,89.2,0,0,.1,0,.2,0,0-.2,0-.2.1,0l6.8-1.2c37.6-6.5,71.8-5.6,101.7-1.7,29.9,3.9,46.7,16.7,48.9,29.3,1.3,7.2-4.6,15.3-17.5,24.3h0ZM687.6,589c6.1-1,11.4-4.2,16.1-9.6,4.6-5.3,7-11.1,7.1-17.4.3-6.3-1.7-11.4-5.9-15.2-4.2-3.8-9.4-5.2-15.5-4.1-6.1,1-11.4,4.2-15.9,9.5-4.5,5.3-7,11.1-7.3,17.4,0,6.3,2,11.3,6.1,15.1,4.1,3.8,9.3,5.2,15.3,4.1h0ZM489,656.5c14.2-12.9,26.8-27.4,37.5-43.6,10.8-16.1,15.4-28.6,13.9-37.4-.3-1.8-1.5-3.2-3.5-4.3-3.1,1-7,4.9-11.9,11.8-2.2,3.2-4.6,6.9-6.9,11.1-2.4,4.2-4.6,8.3-6.6,12.3-2,3.9-3.7,7.5-5.1,10.6-1.4,3.1-2.7,6-3.9,8.5l-1.5,3.4-11.9,27.5h0ZM537.9,731.4c.5,1.4,1.4,2.1,2.8,2.1,5-.4,12.2-7.5,21.4-21.3,9.2-13.8,15.7-28,19.4-42.5,1.4-5.6.7-8.1-2-7.7-4.5.8-10.7,7.6-18.6,20.4-7.9,12.8-15.3,27.7-22.4,44.4-.9,1.5-1.1,3-.6,4.4h0ZM715,763.5c0,2.3.6,4.5,2,6.4,1.4,2,3,2.8,4.8,2.5,1.6-.3,2.8-.6,3.7-1,5.1-1.6,12.6-11.2,22.7-29,10-17.7,19.2-37.7,27.4-59.7,8.2-22.1,12.3-39,12.1-50.8-.2-1.4-.6-2.2-1.1-2.6-2.1-1.3-4.9.6-8.4,5.6-9.3,13.2-20,32.1-32.2,56.5-12.1,24.5-21.9,47.2-29.4,68.3l-1.4,3.7h0ZM576.3,796.6c-19.4,28.7-35,44.5-46.8,47.4-10.7,2.8-20.3,1.2-28.8-4.7-8.6-5.9-14-14.2-16.3-24.7-2-9.3-2.4-19.8-1.4-31.4-18.1,39.5-33.4,60.4-45.8,62.5-6.1,1.1-11.7,0-16.7-3.2-5.1-3.2-8.3-8.7-9.7-16.6-3.1-17.8.2-42.9,10-75.2,4.3-14.2,9-28.7,14.1-43.5-9.6,4.9-18.5,8.2-26.8,9.9,2.3,3.8,3.1,7.4,2.5,10.7-2.3,19-7.9,39.1-16.7,60.3-8.9,21.3-19.5,39.4-32,54.3-12.5,14.9-24.2,22.2-35.2,21.8-2.8-.2-5.1-.7-6.9-1.6-7.5-1.9-14.3-5.5-20.3-10.6-6-5.1-9.8-11-11.4-17.7-2.4-19.3.2-41,7.9-65.1,7.7-24.1,18.3-44.9,32-62.6,13.6-17.7,27.2-27.7,40.7-30,12.6-2.2,23.4-.9,32.3,3.8,4.1,2.1,6.6,5.4,7.6,9.8.8,3.1-.4,4.1-3.7,3.1-6.1-2-13-1.9-20.5,0-8.2,2.3-17.6,13.4-28.3,33.3-10.7,19.8-19.5,40.7-26.2,62.7-6.8,21.9-9.4,37.4-7.8,46.4.9,5.2,2.9,7.5,6.1,7,5.2-.9,12.4-9.7,21.5-26.4,9.2-16.7,17.1-36,23.9-58.1,6.7-22,9.6-39.8,8.7-53.4,21.8-2.8,41.5-8.3,59.1-16.5,14.7-42.7,28.5-76.6,41.5-101.8,2.4-4.8,7.8-9.6,16.1-14.5,8.3-4.8,16.4-7.9,24.3-9.3,5.4-.9,10.3-.7,14.7.6,5.6,1.4,10.9,3.4,15.8,6,5,2.6,7.7,5.2,8.1,7.6,1.6,9.5-5.8,23.9-22.2,43.5-16.5,19.6-33.7,36.7-51.8,51.4l-7.6,6.2c-9.4,23.4-17.3,46-23.8,67.8-7.3,24.7-12,47.1-14.1,67.2-.3,2.4,0,3.9,1.2,4.7,1.1.7,3-.2,5.8-2.7,3.1-3.3,6.8-8.4,11-15.1,4.2-6.7,8.8-15.3,14-25.7,5.2-10.4,9.3-18.8,12.4-25.1,2.1-4.2,4.7-9.7,7.8-16.5,6.3-18.8,14.1-35.9,23.3-51,11.9-19.6,22.8-31.2,32.6-34.7l3.5-1.7.3-.4,1.7-.3,1.7-.3c5.4-.9,10.6-.9,15.7,0,6.7.9,12.4,3.3,17.2,6.9,4.8,3.7,8.1,7.1,9.8,10.1,1.7,3.1,2.5,5.3,2.5,6.7-1.4,14.6-7.3,30.4-17.5,47.4-10.3,17-19.4,27.2-27.4,30.7-7.2,2.9-13.8,3.5-19.8,2-4.6-1.3-7.8.8-9.4,6.1-7.3,25.2-9.9,43.2-8,54.3,1.4,7.9,5.4,11.5,12,10.8,7-1,14.5-5.4,22.4-13.3,7.9-7.9,15.5-18.1,22.7-30.6,7.2-12.5,13.6-24.2,19.1-35.2,5.5-10.9,11.1-22.6,16.7-35.1,4.3-9.4,7.2-16,9-19.8,6.6-20.4,13.1-37.4,19.3-51.1,4.4-4,10.9-4.8,19.4-2.3,3.4,1,6.3,2.3,8.7,3.9,2.4,1.6,4,3.1,5,4.5.9,1.5,1.1,2.6.6,3.4-2.4,4.8-5.5,11.5-9.4,20.1-3.9,8.6-9.5,24.6-17.1,48.2-7.5,23.6-12.4,45.4-14.8,65.5-.3,2.4,0,3.9,1.1,4.7,1.1.8,3-.2,5.8-2.7,2.4-2.5,4.9-5.8,7.7-10,2.8-4.2,5.9-9.4,9.3-15.5,3.5-6.2,6.5-11.7,9.1-16.7,2.6-5,5.9-11.6,9.8-19.8,3.9-8.2,6.8-14.2,8.6-17.8,1.8-3.7,4.6-9.5,8.3-17.4,3.7-8,5.7-12.2,5.8-12.7t0,0c1.9-5.5,3.8-11.1,5.8-16.8,16.6-47.3,34.2-88.9,52.5-124.8,4.4-4,10.9-4.8,19.4-2.3,3.4,1,6.3,2.3,8.7,3.9,2.4,1.6,4,3.1,5,4.5,1,1.5,1.1,2.6.6,3.4-25.7,49.9-47.7,101.8-66,155.8-.9,2.7-.9,4.3.1,4.8.5.4,1.4-.7,2.6-3.2,11.9-23.9,24.8-44.7,38.8-62.6,14-17.8,26.1-27.7,36.5-29.5,5-.9,9.7-.2,14.3,2.1,4.6,2.2,7.3,5.8,8.1,10.8,2.3,12.1-.4,31.3-8.3,57.5-7.9,26.2-18.2,50.8-31.1,73.8-12.8,23-24.1,36.5-33.9,40.5-18.7,7.4-33.6,4.9-44.8-7.6-1.7,4.9-3.1,9.8-4.1,14.6-.4,3.1-3,4.6-7.8,4.5-4.8-.1-9.5-1.4-14.1-3.8-3.8-1.9-6.8-4.6-8.9-8.2-2.1-3.6-3-6.7-2.5-9.3,2.2-12.2,5.1-25.1,8.5-38.6-19.9,45.1-36.6,68.9-50.1,71.2-6.1,1.1-11.7,0-16.7-3.2-5.1-3.2-8.3-8.7-9.7-16.6-2-11.5-.8-27.6,3.7-48.2-9.6,20.6-19.6,38.6-30.1,54.2h0ZM292.5,698.6c-14.2,29.6-28.5,56.4-42.8,80.6-14.3,24.2-28,48-41.2,71.6-13.2,23.6-21.3,40.1-24.3,49.7l-1.1.2c-10.9,1.4-20.3.7-28.4-2.1-8.1-2.7-12.6-6.7-13.5-12-.2-1-.2-1.8,0-2.3.2-10.9,2.5-32.2,6.9-63.9,4.4-31.7,8-63.5,10.6-95.3,2.6-31.8,2.2-57.5-1.1-77-2.7-15.8-15.1-21.9-37.2-18.3-12.3,2.1-23.6,6.9-33.9,14.2-10.3,7.3-18.1,15.8-23.1,25.3-5.1,9.5-7.6,19.6-7.6,30.2,0,10.6,4.3,20.2,12.7,28.8,3.5,3.8,2.5,6-3.1,6.7-9.1,1.3-19.4-1.3-31.2-7.8-12.5-6.6-20-15.5-22.4-26.7-2.9-12.2-1.4-23.7,4.5-34.6,5.8-11,14.3-20.1,25.5-27.4,11.1-7.3,22.5-13.3,34.1-17.9,11.6-4.6,22.5-7.8,32.8-9.5,23.8-4.1,45.2-2.7,64,4.2,18.9,6.9,29.4,17.3,31.5,31.1,3.8,27.7.7,83.9-9.2,168.5l.4,4.6c.7.9,2.3-.8,4.9-5.1,46.8-94.8,75.1-167.1,84.8-216.7,5.3-3.5,13.6-1.5,24.8,5.9,11.2,7.5,15.1,14,11.7,19.5-5.1,21-14.8,46.3-29.1,75.9h0Z"/>
      <path class="st1" d="M583.3,1206.9c0,4.7,3.8,8.5,8.5,8.5s8.5-3.8,8.5-8.5-3.8-8.5-8.5-8.5-8.5,3.8-8.5,8.5h0Z"/>
      <path class="st0" d="M905.7,397.9c-1.3-5.7-2.5-12.7-3.4-18.1h-.8c-1,5.4-2,12.4-3.4,18.1l-7.6,30.6h22.6l-7.4-30.6h0ZM924.1,480.2l-6.7-26.4h-31l-6.7,26.4h-43v-24.4l7.9-.7,19.7-70.6-7.9-1v-24.2h76.7l26.1,95.9,8.1.7v24.4h-43.1ZM783.4,352.1c-4.7,0-12-.5-19-3.9l-7.6-3.6c-4.4-2.1-6.2-2.9-8.9-2.9s-4.6,2-4.6,6.5v3.4h-19.4v-3.4c0-18.2,10.8-23.6,22.6-23.6s10.1.3,16.3,3.3l7.6,3.7c5.2,2.4,7.6,3.4,10.8,3.4s4.7-2,4.7-6.5v-3.3h19.2v3.3c0,18.2-10.6,23.6-21.7,23.6h0ZM828.4,359.3v24.4l-7.4.7v95.9h-38.1l-32.5-52.4c-2.5-4.1-5.9-9.6-8.3-14.3h-.5c.5,5.9.8,12.9.8,18.6v23.1l7.4.7v24.4h-50.2v-24.4l7.1-.7v-70.8l-7.1-.7v-24.4h44l33.4,51.6c3.2,4.9,6.2,10.6,8.6,15.1h.3c-.5-5.5-.7-13.8-.7-19.5v-22.1l-7.4-.7v-24.4h50.6ZM625.8,397.9c-1.3-5.7-2.5-12.7-3.4-18.1h-.8c-1,5.4-2,12.4-3.4,18.1l-7.6,30.6h22.6l-7.4-30.6h0ZM644.2,480.2l-6.7-26.4h-31l-6.7,26.4h-43v-24.4l7.9-.7,19.7-70.6-7.9-1v-24.2h76.7l26.1,95.9,8.1.7v24.4h-43.1ZM520.3,398.2c0-11.7-6.9-14-21.4-14s-7.9,0-11,.2v29.6c3.2,0,7.2.2,11.1.2,14.3,0,21.2-3.3,21.2-14.5v-1.5h0ZM442.6,480.2v-24.4l7.4-.7v-70.8l-7.4-.7v-24.4c17-1.5,38.4-2.1,53.1-2.1,34.5,0,62.7,6,62.7,41v1.5c0,35.5-28.1,41.7-58.1,41.7s-7.2,0-12.3-.2v14l9.1.7v24.4h-54.4ZM380.7,483.2c-18.9,0-37.2-1.8-47.2-4.1v-30.3h22.6l1.7,8.3c5.9.2,11.6.2,17.2.2,11.6,0,16.2-3.3,16.2-10.4s-2.7-7.8-13.5-12l-16.3-6.3c-18.4-7.2-31.2-15.3-31.2-36.9s19-35.2,52.9-35.2,34.7,2.6,43.5,4.4v29.3h-22.6l-1.9-8c-5.6-.2-11.6-.2-16.9-.2-11,0-16.5,2-16.5,8.6s2.7,7.8,13.1,11.7l15.5,5.7c22.4,8.3,32.9,16.9,32.9,36.9s-19.5,38.2-49.5,38.2h0ZM218.7,480.2v-24.3l7.1-.8v-70.8l-7.1-.8v-24.2h98.1v32.2h-22.6l-1.5-6.2h-27.3v21h47.7v24.6h-47.7v23.3h27.3l1.5-6.5h22.6v32.6h-98.1ZM684.5,297.7c0-6-1.3-12.6-11.8-12.6s-11.6,6.6-11.6,12.6v.7h23.5v-.7h0ZM660.9,306.5v.8c0,7.7,1.1,12.6,14.3,12.6s14.3-.6,19.5-1.2v9.1c-3.9,1-11.1,2.2-20.1,2.2-19.4,0-26.5-7.4-26.5-25v-4.4c0-17.1,8.6-25.6,24.4-25.6s24.4,11.2,24.4,26.6v4.7h-36.2ZM623.8,286.4c-3.7-.6-7.6-.9-10.1-.9-7.7,0-11.9,2-11.9,13.9v7.4c0,9.3,3.1,13,11,13s7.7-.9,11.1-2.3v-31.1h0ZM624.5,328.8v-2.7c-3.7,2.2-8.9,4-15.2,4-12.7,0-20.2-7.3-20.2-23.3v-7.4c0-18.5,9.5-24.2,23.4-24.2s7.6.4,11.3,1v-10.6l-5.4-.5v-8.6h18.1v62l4.8.5v9.8h-16.7ZM530.2,279.8c-1.2-3.5-2.1-7.6-2.6-10.9h-.8c-.6,3.3-1.4,7.2-2.6,10.9l-6,19.1h17.9l-6-19.1h0ZM493.3,328.8v-9.9l4.8-.5,16.1-48.4-5-.5v-9.9h28l19,58.7,5,.5v9.9h-23.1v-9.8l3.6-.3-3-9.4h-22.9l-3.1,9.4,3.5.3v9.8h-22.8ZM481.7,280.9c0-9.1-5.9-10.7-17.6-10.7h-8.5v22.7c2.7,0,5.6,0,8.5,0,11.7,0,17.6-2,17.6-11.1v-1h0ZM437.6,328.8v-9.9l4.9-.4v-48.4l-4.9-.5v-9.9c8.5-.4,17.2-.5,25.8-.5,17.5,0,31.5,3.2,31.5,21.7v1c0,18.7-14,22-30.6,22h-8.7v14.6l4.9.5v9.9h-22.9ZM417.6,290.3c0-15.3-6.3-20.6-16.1-20.6s-16,5.3-16,20.6v8.1c0,15.4,6.4,20.6,16,20.6s16.1-5.2,16.1-20.6v-8.1h0ZM401.5,330.2c-18.2,0-29.4-9.6-29.4-31.9v-8.1c0-22.4,11.3-31.9,29.4-31.9s29.5,9.5,29.5,31.9v8.1c0,22.3-11.3,31.9-29.5,31.9h0ZM346.8,330.2c-18.4,0-30.5-6.7-30.5-31.3v-9.3c0-24.6,12.1-31.2,30.5-31.2s14.7,1,18,1.8v15.9h-9l-1-6.1c-2.3,0-4.8-.2-7.2-.2-12,0-17.8,4.1-17.8,19.9v9.3c0,15.8,5.8,20.1,17.8,20.1s4.9,0,7.2-.2l1-6.3h9v16c-3.3.7-11.7,1.8-18,1.8h0Z"/>
      <path class="st6" d="M728.6,130.3C728.6,58.3,670.2,0,598.3,0s-123.2,51.5-129.7,117.5c-.8,5.5-1.1,11.2-1.1,16.9,0,69.8,57.1,126.4,127.6,126.4s5.7,0,8.5-.3c69.5-2.8,125-60,125-130.2h0Z"/>
      <path class="st0" d="M723.6,127.3c0,67.5-54.8,122.3-122.3,122.3s-122.3-54.8-122.3-122.3S533.8,5,601.3,5s122.3,54.8,122.3,122.3h0Z"/>
      <path class="st5" d="M723.6,127.3c0-41.8-21-78.7-53-100.8l-14.8,3.9c6.5,4.5,19.3,16.5,24.6,33.2,10.7,33.8-4.4,82.4-60.1,97.5-59.6,16.1-70.9,38.7-72.1,59.1,3.4,3.1,6.7,5.4,9.4,7h0c102.9-28.9,142.7-41.9,153.3-45.5,8.2-16.4,12.8-34.9,12.8-54.5h0Z"/>
      <path class="st8" d="M635.9,16.5c-22.6,7.6-73.8,18.1-136.9,43.8-12.6,19.2-20,42.3-20,67,0,39.1,18.4,74,47,96.4,7.4-1.7,20.4-4.3,22.7-5.1-9.6-5-22.1-2.2-30.8-26.2-12.7-34.7,6.9-83.6,54.5-103.2,44.2-18.2,73-28,72.7-66.4-3.8-3-7.1-5-9.3-6.3h0Z"/>
      <path class="st6" d="M572.3,83.7c-54.8,14.8-74.6,61-65.3,94.6,2.2,8,5.8,15.1,9.8,21,1.4,1.9,2.9,3.8,4.5,5.6,3.5,4,7.4,7.9,11.4,11.5,16.4,14.3,37.3,24.2,59.8,26.9l4.1.4c1.4.2,2.8.2,4.2.2,2.8.2,5.6.1,8.5,0,5.6-.3,11.3-.9,16.8-2,5.5-1.2,11-2.8,16.2-4.7,5.3-2,10.3-4.5,15.2-7.2,4.9-2.8,9.5-6,13.8-9.4,4.3-3.5,8.3-7.3,12.1-11.3,3.7-4.1,7-8.4,10-12.9.8-1.1,1.4-2.3,2.2-3.4l1.1-1.7,1-1.8c.7-1.2,1.3-2.3,1.9-3.5.2-.3.4-.7.5-1-59.1,18.8-115.9,33.4-136.8,38.6h0c-1.9-1.3-4.8-3.5-8.1-6.5,2.6-35.4,29.9-42.3,72-55.8,45.3-14.5,67-58.1,57.9-91-6.2-22.6-18.9-33.2-27.5-38.6,7.6,6.8,14.3,16,18.6,31.9,9.1,32.9-12.6,76.5-57.9,91-42.1,13.5-69.4,20.4-72,55.8-7.5-6.9-17.1-18.2-21.4-33.8-8.9-32.2,10-76.5,62.6-90.7,56.2-15.2,66.8-36.5,68-55.8,0,0,0,0,0,0h0s0,0,0,0c2.8-.7,6.4-1.7,9.2-2.4-2.2-1.6-4.4-3.1-6.6-4.4-.6-.4-1.3-.8-1.9-1.2-.6-.4-1.3-.7-1.9-1.1-1.3-.7-2.5-1.5-3.7-2.1-1.2-.6-2.5-1.2-3.6-1.8-1.2-.6-2.4-1-3.5-1.6-9.3-3.9-17.1-5.6-22.3-6.5-2.6-.5-4.7-.7-6.1-.8-1.3-.2-2-.2-2.1-.2,0,0-.7,0-2.1-.1-1.4,0-3.5-.2-6.1-.2-5.4,0-13.3.3-23.1,2.5-1.2.3-2.5.5-3.7.9-1.3.4-2.6.7-3.9,1.1-1.3.4-2.6.9-4,1.4-.7.2-1.4.5-2.1.7-.7.3-1.4.6-2.1.9-2.8,1.1-5.6,2.4-8.5,3.9-1.4.8-2.9,1.6-4.3,2.4-1.4.9-2.9,1.8-4.4,2.6-5.8,3.7-11.6,8.2-17.2,13.5-1.4,1.3-2.7,2.7-4.1,4.1-1.3,1.4-2.7,2.9-4,4.4-1.3,1.6-2.6,3.1-3.8,4.7-.5.6-.9,1.2-1.4,1.8,28.4-8.7,71.2-21.4,115.8-33.2h0c2.6,1.6,5.6,2.9,9,5.9-1.2,20.1-12.3,42.3-70.9,58.2h0Z"/>
    </g>
  </g>
  <g id="Capa_2" class="st2">
    <text>
      <textPath xlink:href="#path"><tspan class="st3"><tspan x="0" y="0">Infantil y alevín </tspan></tspan>
      </textPath></text>
  </g>
</svg>